<svg xmlns="http://www.w3.org/2000/svg" xmlns:xlink="http://www.w3.org/1999/xlink" width="350" zoomAndPan="magnify" viewBox="0 0 262.5 74.999997" height="100" preserveAspectRatio="xMidYMid meet" version="1.0"><defs><clipPath id="c2c642cae6"><path d="M 1 25.558594 L 259 25.558594 L 259 48 L 1 48 Z M 1 25.558594 " clip-rule="nonzero"/></clipPath><clipPath id="973d979f07"><path d="M 1 23 L 259 23 L 259 45.457031 L 1 45.457031 Z M 1 23 " clip-rule="nonzero"/></clipPath><clipPath id="aa5b146492"><path d="M 3 29.941406 L 261 29.941406 L 261 52.398438 L 3 52.398438 Z M 3 29.941406 " clip-rule="nonzero"/></clipPath><clipPath id="cfec003643"><path d="M 3 34.078125 L 261 34.078125 L 261 56.535156 L 3 56.535156 Z M 3 34.078125 " clip-rule="nonzero"/></clipPath></defs><g clip-path="url(#c2c642cae6)"><path fill="#00d2c1" d="M 31.398438 25.558594 C 24.507812 25.558594 17.425781 30.035156 11.574219 34.21875 C 5.722656 38.402344 1.277344 42.574219 1.277344 42.574219 L 5.347656 46.910156 C 5.347656 46.910156 9.542969 42.976562 15.03125 39.054688 C 20.519531 35.128906 27.480469 31.5 31.398438 31.5 C 35.316406 31.5 39.085938 34.75 43.40625 38.804688 C 47.722656 42.859375 52.589844 47.714844 59.480469 47.714844 C 66.371094 47.714844 71.238281 42.859375 75.558594 38.804688 C 79.878906 34.75 83.648438 31.5 87.566406 31.5 C 91.484375 31.5 95.257812 34.75 99.578125 38.804688 C 103.894531 42.859375 108.757812 47.714844 115.648438 47.714844 C 122.539062 47.714844 127.40625 42.859375 131.726562 38.804688 C 136.046875 34.75 139.820312 31.5 143.738281 31.5 C 147.65625 31.5 151.425781 34.75 155.746094 38.804688 C 160.0625 42.859375 164.929688 47.714844 171.820312 47.714844 C 178.710938 47.714844 183.578125 42.859375 187.894531 38.804688 C 192.214844 34.75 195.988281 31.5 199.90625 31.5 C 203.824219 31.5 207.59375 34.75 211.914062 38.804688 C 216.230469 42.859375 221.097656 47.714844 227.988281 47.714844 C 234.878906 47.714844 241.960938 43.238281 247.8125 39.054688 C 253.664062 34.871094 258.109375 30.695312 258.109375 30.695312 L 254.039062 26.359375 C 254.039062 26.359375 249.847656 30.296875 244.359375 34.21875 C 238.871094 38.144531 231.910156 41.773438 227.988281 41.773438 C 224.070312 41.773438 220.300781 38.523438 215.984375 34.46875 C 211.664062 30.414062 206.796875 25.558594 199.90625 25.558594 C 193.015625 25.558594 188.148438 30.414062 183.828125 34.46875 C 179.511719 38.523438 175.742188 41.773438 171.820312 41.773438 C 167.902344 41.773438 164.128906 38.523438 159.8125 34.46875 C 155.492188 30.414062 150.628906 25.558594 143.738281 25.558594 C 136.847656 25.558594 131.980469 30.414062 127.660156 34.46875 C 123.34375 38.523438 119.570312 41.773438 115.648438 41.773438 C 111.730469 41.773438 107.960938 38.523438 103.644531 34.46875 C 99.324219 30.414062 94.457031 25.558594 87.566406 25.558594 C 80.675781 25.558594 75.808594 30.414062 71.488281 34.46875 C 67.171875 38.523438 63.402344 41.773438 59.480469 41.773438 C 55.5625 41.773438 51.792969 38.523438 47.472656 34.46875 C 43.15625 30.414062 38.289062 25.558594 31.398438 25.558594 Z M 31.398438 25.558594 " fill-opacity="1" fill-rule="nonzero"/></g><g clip-path="url(#973d979f07)"><path fill="#00d2c1" d="M 31.398438 23 C 24.507812 23 17.425781 27.476562 11.574219 31.660156 C 5.722656 35.84375 1.277344 40.019531 1.277344 40.019531 L 5.347656 44.355469 C 5.347656 44.355469 9.542969 40.417969 15.03125 36.496094 C 20.519531 32.570312 27.480469 28.941406 31.398438 28.941406 C 35.316406 28.941406 39.085938 32.191406 43.40625 36.246094 C 47.722656 40.300781 52.589844 45.15625 59.480469 45.15625 C 66.371094 45.15625 71.238281 40.300781 75.558594 36.246094 C 79.878906 32.191406 83.648438 28.941406 87.566406 28.941406 C 91.484375 28.941406 95.257812 32.191406 99.578125 36.246094 C 103.894531 40.300781 108.757812 45.15625 115.648438 45.15625 C 122.539062 45.15625 127.40625 40.300781 131.726562 36.246094 C 136.046875 32.191406 139.820312 28.941406 143.738281 28.941406 C 147.65625 28.941406 151.425781 32.191406 155.746094 36.246094 C 160.0625 40.300781 164.929688 45.15625 171.820312 45.15625 C 178.710938 45.15625 183.578125 40.300781 187.894531 36.246094 C 192.214844 32.191406 195.988281 28.941406 199.90625 28.941406 C 203.824219 28.941406 207.59375 32.191406 211.914062 36.246094 C 216.230469 40.300781 221.097656 45.15625 227.988281 45.15625 C 234.878906 45.15625 241.960938 40.679688 247.8125 36.496094 C 253.664062 32.3125 258.109375 28.140625 258.109375 28.140625 L 254.039062 23.804688 C 254.039062 23.804688 249.847656 27.738281 244.359375 31.660156 C 238.871094 35.585938 231.910156 39.214844 227.988281 39.214844 C 224.070312 39.214844 220.300781 35.964844 215.984375 31.910156 C 211.664062 27.855469 206.796875 23 199.90625 23 C 193.015625 23 188.148438 27.855469 183.828125 31.910156 C 179.511719 35.964844 175.742188 39.214844 171.820312 39.214844 C 167.902344 39.214844 164.128906 35.964844 159.8125 31.910156 C 155.492188 27.855469 150.628906 23 143.738281 23 C 136.847656 23 131.980469 27.855469 127.660156 31.910156 C 123.34375 35.964844 119.570312 39.214844 115.648438 39.214844 C 111.730469 39.214844 107.960938 35.964844 103.644531 31.910156 C 99.324219 27.855469 94.457031 23 87.566406 23 C 80.675781 23 75.808594 27.855469 71.488281 31.910156 C 67.171875 35.964844 63.402344 39.214844 59.480469 39.214844 C 55.5625 39.214844 51.792969 35.964844 47.472656 31.910156 C 43.15625 27.855469 38.289062 23 31.398438 23 Z M 31.398438 23 " fill-opacity="1" fill-rule="nonzero"/></g><g clip-path="url(#aa5b146492)"><path fill="#00d2c1" d="M 33.957031 29.941406 C 27.066406 29.941406 19.984375 34.421875 14.132812 38.605469 C 8.28125 42.789062 3.835938 46.960938 3.835938 46.960938 L 7.90625 51.296875 C 7.90625 51.296875 12.097656 47.363281 17.585938 43.4375 C 23.074219 39.515625 30.035156 35.886719 33.957031 35.886719 C 37.875 35.886719 41.644531 39.136719 45.964844 43.1875 C 50.28125 47.242188 55.148438 52.101562 62.039062 52.101562 C 68.929688 52.101562 73.796875 47.242188 78.117188 43.1875 C 82.433594 39.136719 86.203125 35.886719 90.125 35.886719 C 94.042969 35.886719 97.816406 39.136719 102.132812 43.1875 C 106.453125 47.242188 111.316406 52.101562 118.207031 52.101562 C 125.097656 52.101562 129.964844 47.242188 134.285156 43.1875 C 138.601562 39.136719 142.375 35.886719 146.296875 35.886719 C 150.214844 35.886719 153.984375 39.136719 158.304688 43.1875 C 162.621094 47.242188 167.488281 52.101562 174.378906 52.101562 C 181.269531 52.101562 186.132812 47.242188 190.453125 43.1875 C 194.773438 39.136719 198.542969 35.886719 202.464844 35.886719 C 206.382812 35.886719 210.152344 39.136719 214.472656 43.1875 C 218.789062 47.242188 223.65625 52.101562 230.546875 52.101562 C 237.4375 52.101562 244.519531 47.621094 250.371094 43.4375 C 256.222656 39.253906 260.667969 35.082031 260.667969 35.082031 L 256.597656 30.746094 C 256.597656 30.746094 252.402344 34.679688 246.917969 38.605469 C 241.429688 42.527344 234.46875 46.15625 230.546875 46.15625 C 226.628906 46.15625 222.859375 42.90625 218.539062 38.851562 C 214.222656 34.800781 209.355469 29.941406 202.464844 29.941406 C 195.574219 29.941406 190.707031 34.800781 186.386719 38.851562 C 182.070312 42.90625 178.296875 46.15625 174.378906 46.15625 C 170.460938 46.15625 166.6875 42.90625 162.367188 38.851562 C 158.050781 34.800781 153.1875 29.941406 146.296875 29.941406 C 139.40625 29.941406 134.539062 34.800781 130.21875 38.851562 C 125.898438 42.90625 122.128906 46.15625 118.207031 46.15625 C 114.289062 46.15625 110.519531 42.90625 106.199219 38.851562 C 101.882812 34.800781 97.015625 29.941406 90.125 29.941406 C 83.234375 29.941406 78.367188 34.800781 74.046875 38.851562 C 69.730469 42.90625 65.957031 46.15625 62.039062 46.15625 C 58.121094 46.15625 54.351562 42.90625 50.03125 38.851562 C 45.714844 34.800781 40.847656 29.941406 33.957031 29.941406 Z M 33.957031 29.941406 " fill-opacity="1" fill-rule="nonzero"/></g><g clip-path="url(#cfec003643)"><path fill="#00d2c1" d="M 33.957031 34.078125 C 27.066406 34.078125 19.984375 38.558594 14.132812 42.742188 C 8.28125 46.925781 3.835938 51.097656 3.835938 51.097656 L 7.90625 55.433594 C 7.90625 55.433594 12.097656 51.5 17.585938 47.574219 C 23.074219 43.652344 30.035156 40.023438 33.957031 40.023438 C 37.875 40.023438 41.644531 43.273438 45.964844 47.328125 C 50.28125 51.378906 55.148438 56.238281 62.039062 56.238281 C 68.929688 56.238281 73.796875 51.378906 78.117188 47.328125 C 82.433594 43.273438 86.203125 40.023438 90.125 40.023438 C 94.042969 40.023438 97.816406 43.273438 102.132812 47.328125 C 106.453125 51.378906 111.316406 56.238281 118.207031 56.238281 C 125.097656 56.238281 129.964844 51.378906 134.285156 47.328125 C 138.601562 43.273438 142.375 40.023438 146.296875 40.023438 C 150.214844 40.023438 153.984375 43.273438 158.304688 47.328125 C 162.621094 51.378906 167.488281 56.238281 174.378906 56.238281 C 181.269531 56.238281 186.132812 51.378906 190.453125 47.328125 C 194.773438 43.273438 198.542969 40.023438 202.464844 40.023438 C 206.382812 40.023438 210.152344 43.273438 214.472656 47.328125 C 218.789062 51.378906 223.65625 56.238281 230.546875 56.238281 C 237.4375 56.238281 244.519531 51.757812 250.371094 47.574219 C 256.222656 43.390625 260.667969 39.21875 260.667969 39.21875 L 256.597656 34.882812 C 256.597656 34.882812 252.402344 38.820312 246.917969 42.742188 C 241.429688 46.667969 234.46875 50.292969 230.546875 50.292969 C 226.628906 50.292969 222.859375 47.042969 218.539062 42.992188 C 214.222656 38.9375 209.355469 34.078125 202.464844 34.078125 C 195.574219 34.078125 190.707031 38.9375 186.386719 42.992188 C 182.070312 47.042969 178.296875 50.292969 174.378906 50.292969 C 170.460938 50.292969 166.6875 47.042969 162.367188 42.992188 C 158.050781 38.9375 153.1875 34.078125 146.296875 34.078125 C 139.40625 34.078125 134.539062 38.9375 130.21875 42.992188 C 125.898438 47.042969 122.128906 50.292969 118.207031 50.292969 C 114.289062 50.292969 110.519531 47.042969 106.199219 42.992188 C 101.882812 38.9375 97.015625 34.078125 90.125 34.078125 C 83.234375 34.078125 78.367188 38.9375 74.046875 42.992188 C 69.730469 47.042969 65.957031 50.292969 62.039062 50.292969 C 58.121094 50.292969 54.351562 47.042969 50.03125 42.992188 C 45.714844 38.9375 40.847656 34.078125 33.957031 34.078125 Z M 33.957031 34.078125 " fill-opacity="1" fill-rule="nonzero"/></g></svg>